<?xml version="1.0" encoding="UTF-8"?>
<!DOCTYPE svg PUBLIC "-//W3C//DTD SVG 1.1//EN" "http://www.w3.org/Graphics/SVG/1.1/DTD/svg11.dtd">
<svg xmlns="http://www.w3.org/2000/svg" version="1.1" width="133px" height="150px" style="shape-rendering:geometricPrecision; text-rendering:geometricPrecision; image-rendering:optimizeQuality; fill-rule:evenodd; clip-rule:evenodd" xmlns:xlink="http://www.w3.org/1999/xlink">
<g><path style="opacity:0.992" fill="#2196f2" d="M 61.5,-0.5 C 61.8333,-0.5 62.1667,-0.5 62.5,-0.5C 63.1667,0.833333 63.8333,0.833333 64.5,-0.5C 65.5,-0.5 66.5,-0.5 67.5,-0.5C 68.1667,0.833333 68.8333,0.833333 69.5,-0.5C 69.8333,-0.5 70.1667,-0.5 70.5,-0.5C 76.7452,3.3297 82.9118,7.3297 89,11.5C 89.3333,11.1667 89.6667,10.8333 90,10.5C 91.8656,12.3409 93.8656,14.0076 96,15.5C 96.3333,15.1667 96.6667,14.8333 97,14.5C 98.8656,16.3409 100.866,18.0076 103,19.5C 103.333,19.1667 103.667,18.8333 104,18.5C 105.333,19.8333 106.667,21.1667 108,22.5C 108.333,22.1667 108.667,21.8333 109,21.5C 110.866,23.3409 112.866,25.0076 115,26.5C 115.333,26.1667 115.667,25.8333 116,25.5C 117.866,27.3409 119.866,29.0076 122,30.5C 122.333,30.1667 122.667,29.8333 123,29.5C 124.547,31.887 126.713,33.2204 129.5,33.5C 129.721,35.6636 130.721,37.3303 132.5,38.5C 132.5,38.8333 132.5,39.1667 132.5,39.5C 131.167,40.1667 131.167,40.8333 132.5,41.5C 132.5,63.5 132.5,85.5 132.5,107.5C 131.167,108.167 131.167,108.833 132.5,109.5C 132.5,109.833 132.5,110.167 132.5,110.5C 130.621,110.393 130.288,110.893 131.5,112C 128.894,114.049 126.394,116.216 124,118.5C 123.667,118.167 123.333,117.833 123,117.5C 117,121.5 111,125.5 105,129.5C 104.667,129.167 104.333,128.833 104,128.5C 101.866,129.992 99.8656,131.659 98,133.5C 97.6667,133.167 97.3333,132.833 97,132.5C 93.3333,135.167 89.6667,137.833 86,140.5C 85.6667,140.167 85.3333,139.833 85,139.5C 79.9432,142.982 74.7765,146.315 69.5,149.5C 66.8333,149.5 64.1667,149.5 61.5,149.5C 61.6068,147.621 61.1068,147.288 60,148.5C 59.6667,147.833 59.3333,147.167 59,146.5C 58,146.5 57,146.5 56,146.5C 55.0853,145.672 54.4186,144.672 54,143.5C 53.6667,143.833 53.3333,144.167 53,144.5C 51.3451,144.198 50.0118,142.864 49,140.5C 47.984,141.634 47.3173,141.301 47,139.5C 46,139.5 45,139.5 44,139.5C 43.0853,138.672 42.4186,137.672 42,136.5C 40.984,137.634 40.3173,137.301 40,135.5C 39,135.5 38,135.5 37,135.5C 36.0853,134.672 35.4186,133.672 35,132.5C 33.984,133.634 33.3173,133.301 33,131.5C 32,131.5 31,131.5 30,131.5C 29.0853,130.672 28.4186,129.672 28,128.5C 27,128.5 26,128.5 25,128.5C 24.0853,127.672 23.4186,126.672 23,125.5C 21.984,126.634 21.3173,126.301 21,124.5C 20,124.5 19,124.5 18,124.5C 17.0853,123.672 16.4186,122.672 16,121.5C 14.984,122.634 14.3173,122.301 14,120.5C 13,120.5 12,120.5 11,120.5C 10.0853,119.672 9.41862,118.672 9,117.5C 8,117.5 7,117.5 6,117.5C 5.62325,116.058 4.78991,115.058 3.5,114.5C 2.57075,113.685 1.57075,112.852 0.5,112C 1.7119,110.893 1.37857,110.393 -0.5,110.5C -0.5,110.167 -0.5,109.833 -0.5,109.5C 0.833333,108.5 0.833333,107.5 -0.5,106.5C -0.5,84.8333 -0.5,63.1667 -0.5,41.5C 0.833333,40.8333 0.833333,40.1667 -0.5,39.5C -0.5,39.1667 -0.5,38.8333 -0.5,38.5C 1.37857,38.6068 1.7119,38.1068 0.5,37C 1.94227,36.6232 2.94227,35.7899 3.5,34.5C 5.2987,32.8498 7.13203,31.1832 9,29.5C 10,29.5 11,29.5 12,29.5C 13.3333,28.1667 14.6667,26.8333 16,25.5C 17,25.5 18,25.5 19,25.5C 19.9147,24.6721 20.5814,23.6721 21,22.5C 22,22.5 23,22.5 24,22.5C 25.3333,21.1667 26.6667,19.8333 28,18.5C 29,18.5 30,18.5 31,18.5C 32.3333,17.1667 33.6667,15.8333 35,14.5C 36,14.5 37,14.5 38,14.5C 39.3333,13.1667 40.6667,11.8333 42,10.5C 42.3333,10.8333 42.6667,11.1667 43,11.5C 44.3333,10.1667 45.6667,8.83333 47,7.5C 48,7.5 49,7.5 50,7.5C 53.6456,4.50859 57.479,1.84192 61.5,-0.5 Z M 84.5,63.5 C 80.5179,56.3857 74.3512,52.719 66,52.5C 49.5437,54.6342 42.5437,63.9675 45,80.5C 50.3201,93.4105 59.8201,98.2438 73.5,95C 78.4886,93.0149 82.4886,89.8482 85.5,85.5C 92.3299,89.0806 98.9965,92.9139 105.5,97C 87.8869,119.817 66.2203,124.483 40.5,111C 23.9513,98.0093 18.4513,80.8426 24,59.5C 36.0183,34.242 55.5183,25.4087 82.5,33C 91.9894,37.1587 99.6561,43.492 105.5,52C 98.4458,55.8579 91.4458,59.6913 84.5,63.5 Z"/></g>
<g><path style="opacity:0.125" fill="#2096ef" d="M 3.5,34.5 C 2.83333,33.1667 2.83333,33.1667 3.5,34.5 Z"/></g>
<g><path style="opacity:0.125" fill="#2096ef" d="M 3.5,114.5 C 2.83333,115.167 2.83333,115.167 3.5,114.5 Z"/></g>
</svg>
