<?xml version="1.0" standalone="no"?>
<!DOCTYPE svg PUBLIC "-//W3C//DTD SVG 20010904//EN"
 "http://www.w3.org/TR/2001/REC-SVG-20010904/DTD/svg10.dtd">
<svg version="1.0" xmlns="http://www.w3.org/2000/svg"
 width="512.000000pt" height="512.000000pt" viewBox="0 0 512.000000 512.000000"
 preserveAspectRatio="xMidYMid meet">

<g transform="translate(0.000000,512.000000) scale(0.100000,-0.100000)"
fill="#2196F3" stroke="none">
<path d="M1280 4330 l0 -301 98 3 97 3 3 98 3 97 89 0 90 0 0 -100 0 -100 100
0 100 0 0 300 0 300 -100 0 -100 0 0 -95 0 -95 -90 0 -90 0 0 95 0 95 -100 0
-100 0 0 -300z"/>
<path d="M1950 4530 l0 -100 85 0 85 0 2 -197 3 -198 98 -3 97 -3 0 201 0 200
90 0 90 0 0 100 0 100 -275 0 -275 0 0 -100z"/>
<path d="M2590 4330 l0 -300 95 0 94 0 3 148 3 147 68 -104 69 -105 66 103 67
102 5 -143 5 -143 98 -3 97 -3 0 301 0 301 -107 -3 -107 -3 -59 -98 c-32 -53
-62 -95 -66 -93 -4 3 -34 48 -65 101 l-58 95 -104 0 -104 0 0 -300z"/>
<path d="M3360 4330 l0 -300 240 0 240 0 0 100 0 100 -140 0 -140 0 0 200 0
200 -100 0 -100 0 0 -300z"/>
<path d="M993 3718 c3 -29 68 -748 143 -1598 75 -850 140 -1548 143 -1553 4
-4 294 -87 644 -184 l636 -176 637 176 c351 97 641 180 644 184 4 5 69 706
144 1558 76 853 140 1571 143 1598 l6 47 -1573 0 -1573 0 6 -52z m2547 -635
c0 -21 -7 -110 -15 -198 -8 -88 -15 -161 -15 -162 0 -2 -337 -3 -750 -3 l-750
0 0 -42 c0 -24 7 -108 15 -188 8 -80 15 -151 15 -157 0 -10 150 -13 715 -13
l715 0 0 -22 c0 -28 -102 -1182 -105 -1185 -1 -2 -182 -53 -403 -114 l-402
-112 -401 111 c-221 61 -403 113 -404 114 -3 3 -55 583 -55 611 0 16 16 17
195 17 l194 0 5 -32 c3 -18 10 -91 16 -163 6 -71 12 -130 13 -131 1 0 100 -27
219 -59 l217 -58 218 58 c120 32 219 59 220 59 3 2 43 456 43 487 l0 29 -680
0 c-374 0 -680 1 -680 3 0 1 -22 252 -50 557 -27 305 -50 572 -50 592 l0 38
980 0 980 0 0 -37z"/>
</g>
</svg>
